HIERARCHY
ROOT root
{
	OFFSET	0	13.1	24.9
	CHANNELS 6  Xposition Yposition Zposition Xrotation Yrotation Zrotation
	JOINT spine_1
	{
		OFFSET	0	9.99999	0
		CHANNELS 3  Xrotation Yrotation Zrotation
		JOINT spine_2
		{
			OFFSET	0	112	-10
			CHANNELS 3  Xrotation Yrotation Zrotation
			JOINT spine_3
			{
				OFFSET	0	206.5	19.3
				CHANNELS 3  Xrotation Yrotation Zrotation
				JOINT spine_4
				{
					OFFSET	0	110.4	14.6
					CHANNELS 3  Xrotation Yrotation Zrotation
					JOINT neck_1
					{
						OFFSET	0	71.8	-50.3
						CHANNELS 3  Xrotation Yrotation Zrotation
						JOINT neck_2
						{
							OFFSET	0	86.2	-25.8
							CHANNELS 3  Xrotation Yrotation Zrotation
							JOINT head_ee
							{
								OFFSET	0	179.8	-8.7
								CHANNELS 3  Xrotation Yrotation Zrotation
								End Site
								{
									OFFSET	1	0	0
								}
							}
						}
					}
					JOINT left_clavicle
					{
						OFFSET	-43.2	22.4	-70.8
						CHANNELS 3  Xrotation Yrotation Zrotation
						JOINT left_shoulder
						{
							OFFSET	-93.9	-5.79999	48.7
							CHANNELS 3  Xrotation Yrotation Zrotation
							JOINT left_elbow
							{
								OFFSET	-291.4	-30.8	15.2
								CHANNELS 3  Xrotation Yrotation Zrotation
								JOINT left_lowarm_twist
								{
									OFFSET	-110.7	-3.89999	13.6
									CHANNELS 3  Xrotation Yrotation Zrotation
									JOINT left_hand
									{
										OFFSET	-110.7	-3.89999	13.6
										CHANNELS 3  Xrotation Yrotation Zrotation
										JOINT left_ee
										{
											OFFSET	-80.8	-5.10001	12.1
											CHANNELS 3  Xrotation Yrotation Zrotation
											End Site
											{
												OFFSET	1	0	0
											}
										}
									}
								}
							}
						}
					}
					JOINT right_clavicle
					{
						OFFSET	43.2	22.4	-70.8
						CHANNELS 3  Xrotation Yrotation Zrotation
						JOINT right_shoulder
						{
							OFFSET	93.9	-5.79999	48.7
							CHANNELS 3  Xrotation Yrotation Zrotation
							JOINT right_elbow
							{
								OFFSET	291.4	-30.8	15.2
								CHANNELS 3  Xrotation Yrotation Zrotation
								JOINT right_lowarm_twist
								{
									OFFSET	110.7	-3.89999	13.6
									CHANNELS 3  Xrotation Yrotation Zrotation
									JOINT right_hand
									{
										OFFSET	110.7	-3.89999	13.6
										CHANNELS 3  Xrotation Yrotation Zrotation
										JOINT right_ee
										{
											OFFSET	80.8	-5.10001	12.1
											CHANNELS 3  Xrotation Yrotation Zrotation
											End Site
											{
												OFFSET	1	0	0
											}
										}
									}
								}
							}
						}
					}
				}
			}
		}
	}
	JOINT left_hip
	{
		OFFSET	-82.8	-127.5	0.300001
		CHANNELS 3  Xrotation Yrotation Zrotation
		JOINT left_knee
		{
			OFFSET	-28.2	-396.7	2.2
			CHANNELS 3  Xrotation Yrotation Zrotation
			JOINT left_ankle
			{
				OFFSET	-11.7	-411.3	35.4
				CHANNELS 3  Xrotation Yrotation Zrotation
				JOINT left_toes
				{
					OFFSET	0	-60	-88.6
					CHANNELS 3  Xrotation Yrotation Zrotation
					JOINT left_foot_ee
					{
						OFFSET	-22.5	-16.5	-42.2
						CHANNELS 3  Xrotation Yrotation Zrotation
						End Site
						{
							OFFSET	1	0	0
						}
					}
				}
			}
		}
	}
	JOINT right_hip
	{
		OFFSET	82.8	-127.5	0.300001
		CHANNELS 3  Xrotation Yrotation Zrotation
		JOINT right_knee
		{
			OFFSET	28.2	-396.7	2.2
			CHANNELS 3  Xrotation Yrotation Zrotation
			JOINT right_ankle
			{
				OFFSET	11.7	-411.3	35.4
				CHANNELS 3  Xrotation Yrotation Zrotation
				JOINT right_toes
				{
					OFFSET	0	-60	-88.6
					CHANNELS 3  Xrotation Yrotation Zrotation
					JOINT right_foot_ee
					{
						OFFSET	22.5	-16.5	-42.2
						CHANNELS 3  Xrotation Yrotation Zrotation
						End Site
						{
							OFFSET	1	0	0
						}
					}
				}
			}
		}
	}
}
MOTION
Frames: 14
Frame Time: 0.02
1907.38 679.328 -1437.29 -55.7467 71.2406 52.3755 5.11257 0.484337 2.68384 5.11652 0.31264 2.7092 5.12775 -0.0199893 2.72709 5.11761 0.410796 2.69607 0.0771777 8.38978 -3.22346 0.376058 17.5781 -2.63063 -0.0 0.0 -0.0 -6.54234 23.4858 -6.31719 -22.3771 -10.8956 69.2415 0.639646 -17.5815 0.0989177 -30.4633 -1.99866 3.29508 2.8829 19.9008 26.2188 -0.0 0.0 -0.0 11.6116 16.8938 -23.232 10.1812 10.3379 -70.7659 2.93397 55.4595 -1.54255 63.0837 2.05603 7.38493 1.61538 -17.2192 -17.1144 0.0 0.0 0.0 39.0104 -0.658528 -5.49476 3.67658 -0.168768 -0.538776 -3.99534 1.97659 0.593681 -39.5593 0.0 0.0 -0.0 0.0 -0.0 -4.51942 10.3726 0.573122 -4.37798 -0.155335 -0.653769 40.9995 -8.13144 4.95131 -0.461264 0.0 0.0 0.0 0.0 0.0 
1885.84 679.694 -1436.4 -57.6814 71.1043 54.2986 5.28106 0.471997 2.68129 5.28501 0.300487 2.70586 5.29546 -0.0236845 2.72238 5.28535 0.406404 2.692 0.418433 8.73527 -3.11588 0.741682 18.082 -2.53329 -0.0 0.0 -0.0 -6.39971 22.8965 -6.29476 -21.4634 -11.6761 68.8622 0.639863 -17.5871 0.0989836 -30.0207 -1.95767 3.25582 2.93854 20.2048 26.6719 -0.0 0.0 -0.0 11.7752 17.1925 -23.5902 8.27597 10.3614 -70.9617 2.7501 53.71 -1.39269 63.0231 2.05034 7.37963 1.4452 -19.2323 -16.6713 0.0 0.0 0.0 38.71 -0.286137 -5.24173 3.14383 -0.142171 -0.461378 -3.75053 2.04793 0.556947 -39.7255 0.0 0.0 -0.0 0.0 -0.0 -4.52212 11.4465 0.89312 -6.58628 -0.214608 -0.987463 40.577 -8.12374 4.91513 0.0382901 -0.0 -0.0 0.0 0.0 0.0 
1860.87 683.956 -1431.11 -57.9621 71.4541 54.5083 5.30662 0.507439 2.76342 5.31081 0.330637 2.79008 5.32291 -0.00239326 2.80959 5.31217 0.441185 2.77476 0.267949 8.82156 -2.63495 0.564497 17.8542 -1.97798 -0.0 0.0 -0.0 -6.26409 22.544 -6.20629 -19.8914 -11.6891 68.4743 0.683025 -18.6933 0.112422 -28.6799 -1.8354 3.13498 2.99148 19.7678 26.9246 -0.0 0.0 -0.0 11.3364 16.7635 -22.6128 4.86713 10.0739 -71.1916 2.58695 52.0251 -1.2626 64.1681 2.15873 7.47869 1.69901 -21.1404 -18.8475 0.0 0.0 0.0 37.4512 -0.13452 -4.51653 0.153058 -0.00633266 -0.0226343 2.3811 1.57974 -0.348788 -35.8703 0.0 0.0 -0.0 0.0 -0.0 -4.94267 12.5217 1.52382 -8.36909 -0.253046 -1.25834 40.9851 -9.66918 4.95945 1.31732 -0.0 -0.0 0.0 0.0 0.0 
1841.01 687.316 -1423.22 -61.0496 72.349 57.7012 5.32318 0.462431 2.69385 5.32717 0.290142 2.71779 5.33711 -0.0333995 2.73302 5.32691 0.398489 2.70404 0.879461 8.58731 -3.66502 1.24336 18.2376 -3.21952 -0.0 0.0 -0.0 -5.76365 23.2941 -5.27641 -19.1512 -12.8579 68.1507 0.683607 -18.7082 0.112609 -28.4648 -1.81604 3.11532 2.89132 19.6672 26.2171 -0.0 0.0 -0.0 11.251 14.4268 -22.5158 3.85886 9.46329 -70.6786 2.17712 47.1563 -0.950265 64.3607 2.17715 7.49515 1.74253 -21.4585 -19.2132 0.0 0.0 0.0 35.9953 0.236598 -3.21138 1.13992 -0.0486161 -0.168166 2.33918 1.1158 -0.343026 -36.0648 0.0 0.0 -0.0 0.0 -0.0 -5.33963 12.9357 2.05466 -9.94718 -0.280023 -1.49898 38.809 -9.7201 4.7685 1.40509 -0.0 -0.0 0.0 0.0 0.0 
1824.45 688.109 -1411.86 -63.125 72.6654 60.1937 5.28709 0.37568 2.30919 5.29003 0.228019 2.3284 5.29652 -0.0507172 2.33898 5.28903 0.319217 2.31767 1.241 7.26898 -4.1884 1.57225 16.3179 -3.95656 -0.0 0.0 -0.0 -5.54108 23.3591 -4.94559 -14.554 -14.9837 68.3063 0.67512 -18.4918 0.109902 -26.8963 -1.6772 2.96988 3.03466 19.6495 27.1909 -0.0 0.0 -0.0 10.8493 16.1451 -21.5415 2.27626 8.84387 -69.5916 1.92197 43.5894 -0.768586 63.8622 2.12957 7.45244 1.90284 -22.9404 -20.6326 0.0 0.0 0.0 37.134 0.695556 -2.02782 -4.23914 0.151179 0.632867 9.6431 0.959553 -1.38251 -33.2743 0.0 0.0 -0.0 0.0 -0.0 -5.31924 13.9156 2.20875 -12.2986 -0.307899 -1.85868 40.8918 -11.6333 4.96857 2.09548 -0.0 -0.0 0.0 0.0 0.0 
1799.93 692.941 -1405.04 -63.0409 73.0753 60.3189 5.2736 0.332279 2.14259 5.27613 0.195299 2.15938 5.28112 -0.0636885 2.16726 5.27467 0.279308 2.15014 1.00915 8.03213 -2.92019 1.30103 16.6322 -2.46431 -0.0 0.0 -0.0 -4.75434 22.454 -4.07367 -11.2969 -15.4659 69.0759 0.687504 -18.8073 0.113862 -26.1929 -1.61625 2.90345 2.69158 20.1324 24.9906 -0.0 0.0 -0.0 10.6988 13.9779 -21.29 -0.152729 7.56639 -69.4582 1.6845 39.84 -0.610482 64.1437 2.1564 7.47661 1.93861 -23.6118 -21.0357 0.0 0.0 0.0 35.363 1.07973 -1.40174 -2.77159 0.104153 0.412557 5.67857 1.11132 -0.824668 -32.4732 0.0 0.0 -0.0 0.0 -0.0 -4.38351 14.6352 2.32665 -14.9774 -0.321643 -2.26943 39.6798 -12.4353 4.87056 1.60934 -0.0 -0.0 0.0 0.0 0.0 
1779.9 693.125 -1396.84 -63.1827 73.527 60.4584 5.26201 0.216717 2.0489 5.26434 0.0859294 2.05853 5.26527 -0.160881 2.05403 5.25942 0.165465 2.05367 1.14983 7.7813 -3.66939 1.47532 16.7983 -3.32974 -0.0 0.0 -0.0 -4.56022 22.0615 -3.89409 -8.53768 -16.2302 69.3112 0.682829 -18.6883 0.112359 -25.2191 -1.53323 2.81026 2.85546 19.2324 25.8625 -0.0 0.0 -0.0 10.5332 14.3626 -20.9063 -2.17818 7.04205 -69.3046 1.49409 36.5039 -0.492759 63.0905 2.05666 7.38552 1.84009 -24.0854 -20.55 0.0 0.0 0.0 33.7379 1.464 -0.383699 -4.8372 0.16872 0.722974 13.4445 0.552602 -1.90168 -30.7117 0.0 0.0 -0.0 0.0 -0.0 -3.13352 15.641 2.38261 -20.4726 -0.289721 -3.11163 40.7052 -13.8686 4.97898 1.49311 -0.0 -0.0 0.0 0.0 0.0 
1756.74 693.964 -1392.69 -64.9648 74.7523 62.0965 5.2055 0.351121 2.05164 5.20782 0.219887 2.06982 5.21363 -0.0310243 2.08123 5.2077 0.297985 2.06003 1.37611 7.95097 -3.39794 1.70186 16.8596 -3.04916 -0.0 0.0 -0.0 -4.4037 22.1402 -3.65137 -7.05178 -18.2393 69.1093 0.744671 -20.2484 0.132972 -25.1249 -1.52528 2.80118 2.68582 18.9872 24.6522 -0.0 0.0 -0.0 10.6615 13.6152 -21.2183 -4.50654 5.17079 -68.5042 1.1835 30.3808 -0.321348 63.7239 2.11645 7.44052 2.1499 -24.8302 -22.6639 0.0 0.0 0.0 31.7511 0.867055 0.815091 -8.23455 0.25044 1.23786 20.6719 -0.637385 -2.83914 -27.5847 0.0 0.0 -0.0 0.0 -0.0 -2.04746 17.4346 2.53715 -27.8089 -0.121734 -4.22416 40.6769 -17.4393 5.03537 0.443958 -0.0 -0.0 0.0 0.0 0.0 
1725.52 700.706 -1389.04 -65.6286 77.5793 63.1805 4.64394 0.272324 1.89936 4.64593 0.150934 1.91283 4.64945 -0.0994803 1.9162 4.64439 0.204339 1.90787 1.77335 7.10607 -2.65729 2.02108 14.729 -2.34562 -0.0 0.0 -0.0 -4.84876 23.0331 -4.06072 -3.94487 -22.6013 69.4881 0.940443 -24.9789 0.208314 -23.7287 -1.40927 2.66496 2.91602 18.8085 26.1654 -0.0 0.0 -0.0 10.7388 12.4697 -21.4217 -7.92097 3.67581 -68.1773 1.00293 26.4186 -0.235411 64.1148 2.15364 7.47413 2.62424 -24.7235 -25.6446 0.0 0.0 0.0 28.1094 1.4795 1.43303 -11.5768 0.300913 1.74816 24.7248 -1.04632 -3.32885 -24.6939 0.0 0.0 -0.0 0.0 -0.0 -1.01737 17.2125 0.908163 -34.8184 0.170438 -5.25946 40.6791 -19.2796 5.07415 -0.47674 0.0 0.0 0.0 0.0 0.0 
1714.15 704.06 -1387.56 -64.5081 78.9916 62.1573 4.29216 0.373085 1.8897 4.29411 0.252105 1.9096 4.30122 -0.010404 1.92614 4.29616 0.293868 1.90362 0.0777235 7.01589 -2.03915 0.25672 14.165 -1.47697 -0.0 0.0 -0.0 -4.81327 22.5885 -4.12343 0.654899 -25.1343 69.9662 1.04934 -27.4654 0.256444 -23.0904 -1.35735 2.60177 2.96679 19.225 26.6195 -0.0 0.0 -0.0 10.8779 12.8931 -21.7221 -9.79571 2.23628 -67.7648 0.844538 22.7023 -0.169542 64.5488 2.1952 7.51115 2.8446 -25.6167 -27.2565 0.0 0.0 0.0 26.0296 1.28099 1.53601 -13.8394 0.31815 2.09485 28.362 -2.23472 -3.75188 -21.3465 0.0 0.0 -0.0 0.0 -0.0 0.435159 17.537 0.0824324 -39.945 0.463271 -5.99059 40.4661 -22.4188 5.13384 -1.49877 0.0 0.0 0.0 0.0 0.0 
1688.96 705.909 -1384.23 -69.4677 80.7511 67.0798 3.95153 0.247866 1.75879 3.95324 0.135466 1.77099 3.95646 -0.117794 1.77225 3.95211 0.163533 1.76862 0.210291 6.87371 -1.7442 0.374784 13.6624 -1.18608 -0.0 0.0 -0.0 -5.03562 23.0667 -4.31457 4.08831 -27.6004 70.9943 1.16355 -29.9576 0.311321 -22.45 -1.30598 2.53779 3.08506 19.0303 27.3835 -0.0 0.0 -0.0 10.851 12.3279 -21.6752 -12.4659 1.02741 -67.421 0.693751 18.966 -0.115884 64.6207 2.20212 7.51726 2.9847 -26.5235 -28.3409 0.0 0.0 0.0 24.2455 0.746236 2.78961 -15.146 0.321865 2.29529 30.1763 -2.24493 -3.94862 -20.3679 0.0 0.0 -0.0 0.0 -0.0 1.64981 18.1029 -0.636027 -43.576 0.709802 -6.49149 40.5277 -24.3975 5.19879 -2.73184 0.0 0.0 0.0 0.0 0.0 
1675.93 706.266 -1382.32 -68.0852 81.4302 65.7538 3.74352 0.235725 1.80845 3.74533 0.120191 1.81978 3.74822 -0.146474 1.81786 3.74364 0.142412 1.81818 -1.01454 6.82367 -1.31105 -0.888647 13.3012 -0.594364 -0.0 0.0 -0.0 -5.09092 22.4359 -4.55732 6.50082 -29.2869 71.1779 1.25128 -31.7912 0.356345 -22.0602 -1.27506 2.49858 3.12749 18.675 27.5879 -0.0 0.0 -0.0 10.9069 12.093 -21.8046 -13.9975 0.284443 -67.0633 0.615299 16.9514 -0.0916913 64.7544 2.21499 7.52858 3.08101 -27.1911 -29.0866 0.0 0.0 0.0 22.1976 0.201552 2.91287 -15.337 0.322025 2.3246 32.1328 -2.77041 -4.159 -19.4954 0.0 0.0 -0.0 0.0 -0.0 3.40937 18.4057 -0.942304 -46.164 0.90473 -6.83866 40.466 -25.7032 5.23615 -3.64715 0.0 0.0 0.0 0.0 0.0 
1672.29 709.334 -1378.18 -57.4319 80.8534 55.2911 3.45705 0.287818 1.66687 3.45858 0.181183 1.6818 3.46325 -0.0743857 1.68989 3.45932 0.193396 1.68044 -1.99895 6.68642 -0.67709 -1.90958 12.6142 0.161465 -0.0 0.0 -0.0 -5.12085 20.668 -5.0614 9.4571 -31.5157 71.8672 1.32143 -33.2071 0.394041 -20.333 -1.14132 2.32234 3.19157 17.023 27.6069 -0.0 0.0 -0.0 10.9045 13.7876 -21.7568 -15.4323 -0.176972 -67.3365 0.613395 16.9019 -0.0911368 64.2366 2.16528 7.48455 3.22502 -28.3245 -30.2081 0.0 0.0 0.0 19.9126 -0.678403 2.78971 -11.202 0.296736 1.69079 29.1407 -3.05039 -3.84555 -21.1988 0.0 0.0 -0.0 0.0 -0.0 6.32766 17.419 -0.0146463 -47.9073 1.04483 -7.06749 39.0959 -24.0279 5.05015 -5.00164 0.0 0.0 0.0 0.0 0.0 
1660.62 710.376 -1370.38 -54.8225 80.6654 52.5558 3.26417 0.212731 1.78563 3.26593 0.0986938 1.79555 3.26835 -0.179212 1.78931 3.2639 0.105578 1.79515 -1.74362 6.78758 -1.16551 -1.63569 13.167 -0.3674 -0.0 0.0 -0.0 -4.67701 17.4855 -5.18358 11.287 -31.4223 71.3961 1.38094 -34.3733 0.427139 -16.879 -0.890168 1.95834 3.09549 15.6414 26.553 -0.0 0.0 -0.0 10.6183 13.2615 -21.1323 -16.7457 -0.60455 -66.1676 0.422347 11.8171 -0.0437093 63.8848 2.13173 7.45439 3.28993 -30.3427 -30.9052 0.0 0.0 0.0 17.2153 -0.389581 3.79467 -7.44329 0.234138 1.11753 29.5205 -2.82057 -3.88423 -21.2092 0.0 0.0 -0.0 0.0 -0.0 8.21147 16.5182 0.568147 -49.603 1.18777 -7.28596 36.613 -25.697 4.8519 -4.50303 0.0 0.0 0.0 0.0 0.0 
